<?xml version="1.0" encoding="UTF-8"?>
<svg width="200px" height="200px" viewBox="0 0 200 200" version="1.1" xmlns="http://www.w3.org/2000/svg" xmlns:xlink="http://www.w3.org/1999/xlink">
    <!-- Generator: Sketch 47 (45396) - http://www.bohemiancoding.com/sketch -->
    <title>roundabout</title>
    <desc>Created with Sketch.</desc>
    <defs></defs>
    <g id="Page-1" stroke="none" stroke-width="1" fill="none" fill-rule="evenodd">
        <g id="roundabout" fill-rule="nonzero">
            <path d="M100,0 C45.0390625,0 0,45.0390625 0,100 C0,154.960938 45.0390625,200 100,200 C154.960938,200 200,154.960938 200,100 C200,45.0390625 154.960938,0 100,0 Z" id="Shape" fill="#4DA6FF"></path>
            <path d="M200,100 C200,154.960938 154.960938,200 100,200 L100,0 C154.960938,0 200,45.0390625 200,100 Z" id="Shape" fill="#4596E6"></path>
            <g id="Group" transform="translate(41.406250, 32.031250)" fill="#FFFFFF">
                <path d="M60.0171875,107.78125 C60.2035156,105.027344 62.3558594,102.984766 65.0714844,102.489453 C72.8082031,101.078906 79.73125,97.1808594 84.9097656,91.2917969 L89.5902344,85.9761719 L83.6683594,82.4851562 C82.7230469,81.9277344 82.1585938,80.8972656 82.1984375,79.8007812 C82.2382813,78.7042969 82.8753906,77.7167969 83.8585938,77.2292969 L108.873438,64.8222656 C112.617578,62.9652344 117.046484,65.5128906 117.323438,69.6832031 L119.176172,97.5976562 C119.249219,98.6972656 118.711719,99.7476562 117.777344,100.331641 C116.842969,100.915625 115.663281,100.939062 114.706641,100.391797 L109.491406,97.4089844 L106.430078,101.729297 C96.8691406,115.23125 82.1285156,124.004687 66.015625,126.085156 C62.2679688,126.569141 58.9476563,123.646875 59.2007813,119.876562 C59.4597656,116.017188 59.7820313,111.255859 60.0171875,107.78125 Z" id="Shape"></path>
                <path d="M92.3242188,46.8484375 C89.8847656,48.0601562 87.0707031,47.2347656 85.3058594,45.1601562 C80.2390625,39.2039062 73.2707031,35.0460937 65.6035156,33.5105469 L58.59375,32.103125 L58.59375,38.9519531 C58.59375,40.0542969 57.9875,41.0671875 57.0160156,41.5878906 C56.0445313,42.1085937 54.8652344,42.0527344 53.9472656,41.4425781 L30.6863281,25.9820312 C27.2054688,23.6683594 27.1597656,18.5832031 30.6328125,16.2578125 C36.2238281,12.5148437 47.55,4.95625 53.9304688,0.699609375 C54.846875,0.08828125 56.0253906,0.030078125 56.9972656,0.5484375 C57.9695313,1.06679687 58.5792969,2.07734375 58.5816406,3.17890625 L58.5933594,9.07148437 L63.8917969,9.58085937 C80.3175781,11.1703125 95.2816406,19.5609375 105.150781,32.4386719 C107.445313,35.4328125 106.581641,39.7660156 103.203125,41.4441406 L92.3242188,46.8484375 Z" id="Shape"></path>
                <path d="M36.1941406,113.113672 C35.9285156,117.286719 31.5300781,119.859766 27.7804688,118.009375 C20.2425781,114.289844 9.08671875,108.777734 2.67578125,105.609766 C1.6859375,105.120703 1.04609375,104.126172 1.01132812,103.022656 C0.9765625,101.919141 1.55195312,100.885156 2.509375,100.335547 L7.63867187,97.3917969 L5.384375,92.5222656 C1.86523438,84.9003906 0,76.4085937 0,67.96875 C0,60.1964844 1.56601563,52.4972656 4.56875,45.3550781 C6.02578125,41.8890625 10.2117187,40.503125 13.3386719,42.5902344 L23.4238281,49.3207031 C25.6695312,50.8195312 26.3550781,53.6417969 25.4574219,56.1882812 C22.8789062,63.5042969 22.7707031,71.6292969 25.2453125,79.0871094 L27.5054687,85.8964844 L33.4929688,82.459375 C34.4480469,81.9109375 35.6269531,81.9320312 36.5621094,82.5136719 C37.4972656,83.0953125 38.0367187,84.1441406 37.9667969,85.2429688 L36.1941406,113.113672 Z" id="Shape"></path>
            </g>
        </g>
    </g>
</svg>